<?xml version="1.0" encoding="UTF-8"?>
<svg version="1.1" xmlns="http://www.w3.org/2000/svg" width="70" height="70">
<path d="M0 0 C23.1 0 46.2 0 70 0 C70 23.1 70 46.2 70 70 C46.9 70 23.8 70 0 70 C0 46.9 0 23.8 0 0 Z " fill="#030303" transform="translate(0,0)"/>
<path d="M0 0 C7.59 0 15.18 0 23 0 C23 0.66 23 1.32 23 2 C22.34 2 21.68 2 21 2 C21 2.66 21 3.32 21 4 C20.2575 4.433125 19.515 4.86625 18.75 5.3125 C15.68870556 7.19102159 14.15345921 9.15187653 12 12 C10.1875 14.3125 10.1875 14.3125 8 16 C4.25 16.25 4.25 16.25 1 16 C0.62963917 14.65017251 0.27964576 13.29475372 -0.0625 11.9375 C-0.35833984 10.80634766 -0.35833984 10.80634766 -0.66015625 9.65234375 C-1 7 -1 7 0 0 Z " fill="#303030" transform="translate(14,0)"/>
</svg>
